 http://lookpic.com/O/i2/16/FOKdOAUa.jpeg


 
http://www.imdb.com/title/tt2024432

Mild-mannered businessman Sandy Patterson travels from Denver to Miami to confront the deceptively harmless-looking woman who has been living it up after stealing Sandy's identity.

The Format: AVI
Format / Info: Audio Video Interleave
the Format profile: OpenDML
Format settings: rec
File size: 2.31 ♂♂GiB
Duration: 1h 51mn
Overall bit rate: 2 968 Kbps
Writing application: AVI-Mux GUI 1.17.8, Aug 30 2008 12: 36:58
Video # 0
ID: 0
the Format: MPEG-4 Visual
Format profile: Advanced the Simple _AT_ L5
the Format settings, BVOP: 2
the Format settings, QPel: No
the Format settings, GMC: No warppoints
Format settings, Matrix: Default (MPEG)
Codec ID: XVID
Codec ID / the Hint: XviD
Duration: 1h 51mn
Bit rate: 2 770 Kbps
the Width: 1 280 pixels
the Height: 540 pixels
the Display aspect ratio: 2.35:1
the Frame rate: 25.000 fps
Color SPACe: YUV
the Chroma subsampling: 4: 2:0
Bit depth: 8 bits
Scan type: Progressive
Compression mode: Lossy
Bits / (Pixel * Frame): 0.160
Stream size: 2.16 GiB (93%)
Writing library: XviD 1.2.1 (UTC 2008-12-04)
Audio # 1
ID: 1
the Format: AC-3
the Format / Info: Audio Coding
Mode eXtenSion: CM (complete main)
Codec ID: 2000
Duration: 1h 51mn
Bit rate mode: Constant
Bit rate: 192 Kbps
Channel (s): 2 channels
Channel positions: Front: LR
Sampling rate: 48.0 KHz
Bit depth: 16 bits
Compression mode: Lossy
Stream size: 153 MiB (6%) of
the Alignment: Aligned on interleaves
Interleave, duration: 64 ms (1.60 video frames)
Interleave, preload duration: 192 ms

 
http://lookpic.com/O/i2/1653/zqM35FLx.jpeg 
http://lookpic.com/O/i2/755/2vy1kzxE.jpeg
